# xmcd
#
# Track frame offsets:
# 150
# 13376
# 27628
# 42879
# 56159
# 67280
# 79426
# 92085
# 106688
# 123261
# 141238
# 157541
# 172441
# 186612
# 199568
# 212362
# 227991
#
# Disc length: 3084 seconds
#
#
# Revision: 7
# Processed by: cddbd v1.5.1PL0 Copyright (c) Steve Scherf et al.
# Submitted via: FreeRIP 2.942 
#
DISCID=fb0c0a11
DTITLE=Tião Carreiro - Saudades de ... - Saudades De Tião Carreiro
DYEAR=1996
DGENRE=Sertanejo
TTITLE0=Rei do Gado
TTITLE1=Amargurado
TTITLE2=A Vaca Já Foi Pro Brejo
TTITLE3=Pagode em Brasilia
TTITLE4=Empreitada Perigosa
TTITLE5=Rancho dos Ipês
TTITLE6=Pretinho Aleijado
TTITLE7=Boi Soberano
TTITLE8=A Mão do Tempo
TTITLE9=A Coisa Tá Feia
TTITLE10=Rancho do Vale
TTITLE11=Pai João
TTITLE12=Oi Paixão
TTITLE13=Raízes do Amor
TTITLE14=Rei Sem Coroa
TTITLE15=Rio de Lágrimas
TTITLE16=Homenagem a Tião Carreiro
EXTD=YEAR: 1996
EXTT0=
EXTT1=
EXTT2=
EXTT3=
EXTT4=
EXTT5=
EXTT6=
EXTT7=
EXTT8=
EXTT9=
EXTT10=
EXTT11=
EXTT12=
EXTT13=
EXTT14=
EXTT15=
EXTT16=
PLAYORDER=
